<svg aria-hidden="true" style="width:0;height:0;position:absolute;overflow:hidden" xmlns="http://www.w3.org/2000/svg"><defs><symbol id="spinner" viewBox="0 0 32 32"><path d="M16 32c-4.274 0-8.292-1.664-11.314-4.686S0 20.274 0 16c0-3.026.849-5.973 2.456-8.522a16.061 16.061 0 0 1 6.386-5.791l1.344 2.682a13.044 13.044 0 0 0-5.192 4.708A12.953 12.953 0 0 0 3 15.999c0 7.168 5.832 13 13 13s13-5.832 13-13c0-2.459-.69-4.853-1.994-6.922a13.051 13.051 0 0 0-5.192-4.708l1.344-2.682a16.047 16.047 0 0 1 6.386 5.791A15.953 15.953 0 0 1 32 16c0 4.274-1.664 8.292-4.686 11.314S20.274 32 16 32z"/></symbol><symbol id="search" viewBox="0 0 32 32"><path d="m31.008 27.231-7.58-6.447c-.784-.705-1.622-1.029-2.299-.998a11.954 11.954 0 0 0 2.87-7.787c0-6.627-5.373-12-12-12s-12 5.373-12 12 5.373 12 12 12c2.972 0 5.691-1.081 7.787-2.87-.031.677.293 1.515.998 2.299l6.447 7.58c1.104 1.226 2.907 1.33 4.007.23s.997-2.903-.23-4.007zM12 20a8 8 0 1 1 0-16 8 8 0 0 1 0 16z"/></symbol></defs></svg>